<svg width="54" height="53" viewBox="0 0 54 53" fill="none" xmlns="http://www.w3.org/2000/svg">
<path d="M17.625 26.5V17.125H19.5C21.4884 17.1225 23.3946 16.3315 24.8006 14.9256C26.2065 13.5196 26.9975 11.6134 27 9.625V4H21.375C19.455 4.00353 17.6103 4.74693 16.2244 6.07563C15.2539 4.3123 13.8281 2.84163 12.0957 1.81696C10.3633 0.792296 8.38775 0.251167 6.375 0.25H0.75V5.875C0.753474 8.85762 1.93985 11.7171 4.04889 13.8261C6.15792 15.9351 9.01738 17.1215 12 17.125H13.875V26.5H0.75V30.25H27V26.5H17.625ZM21.375 7.75H23.25V9.625C23.25 10.6196 22.8549 11.5734 22.1516 12.2767C21.4484 12.9799 20.4946 13.375 19.5 13.375H17.625V11.5C17.625 10.5054 18.0201 9.55161 18.7234 8.84835C19.4266 8.14509 20.3804 7.75 21.375 7.75ZM12 13.375C10.0116 13.3725 8.10542 12.5815 6.69944 11.1756C5.29345 9.76958 4.50248 7.86336 4.5 5.875V4H6.375C8.36336 4.00248 10.2696 4.79345 11.6756 6.19944C13.0815 7.60543 13.8725 9.51164 13.875 11.5V13.375H12ZM0.75 35.875H27V39.625H0.75V35.875ZM0.75 45.25H27V49H0.75V45.25ZM43.875 52.75C41.909 52.7561 39.9911 52.1422 38.3941 50.9956C36.797 49.8491 35.6021 48.2282 34.9791 46.3636C34.3562 44.4989 34.337 42.4852 34.9242 40.609C35.5114 38.7327 36.6751 37.0894 38.25 35.9125V24.625C38.25 23.1332 38.8426 21.7024 39.8975 20.6475C40.9524 19.5926 42.3832 19 43.875 19C45.3668 19 46.7976 19.5926 47.8525 20.6475C48.9074 21.7024 49.5 23.1332 49.5 24.625V35.9125C51.0749 37.0894 52.2386 38.7327 52.8258 40.609C53.413 42.4852 53.3938 44.4989 52.7709 46.3636C52.1479 48.2282 50.953 49.8491 49.3559 50.9956C47.7589 52.1422 45.841 52.7561 43.875 52.75ZM43.875 22.75C43.3777 22.75 42.9008 22.9475 42.5492 23.2992C42.1975 23.6508 42 24.1277 42 24.625V37.9938L41.0681 38.5375C40.2131 39.0232 39.5019 39.7267 39.007 40.5764C38.512 41.426 38.2508 42.3917 38.25 43.375C38.25 44.8668 38.8426 46.2976 39.8975 47.3525C40.9524 48.4074 42.3832 49 43.875 49C45.3668 49 46.7976 48.4074 47.8525 47.3525C48.9074 46.2976 49.5 44.8668 49.5 43.375C49.4995 42.3913 49.2385 41.4253 48.7435 40.5753C48.2485 39.7253 47.5372 39.0215 46.6819 38.5356L45.75 37.9938V24.625C45.75 24.1277 45.5525 23.6508 45.2008 23.2992C44.8492 22.9475 44.3723 22.75 43.875 22.75Z" fill="#333333"/>
</svg>
