<svg width="36" height="36" viewBox="0 0 36 36" fill="none" xmlns="http://www.w3.org/2000/svg">
<path d="M11.75 18V11.75H13C14.3256 11.7483 15.5964 11.221 16.5337 10.2837C17.471 9.34638 17.9983 8.07558 18 6.75V3H14.25C12.97 3.00236 11.7402 3.49795 10.8162 4.38375C10.1693 3.2082 9.21875 2.22775 8.06381 1.54464C6.90888 0.861531 5.59183 0.500778 4.25 0.5H0.5V4.25C0.502316 6.23841 1.29324 8.14472 2.69926 9.55074C4.10528 10.9568 6.01159 11.7477 8 11.75H9.25V18H0.5V20.5H18V18H11.75ZM14.25 5.5H15.5V6.75C15.5 7.41304 15.2366 8.04893 14.7678 8.51777C14.2989 8.98661 13.663 9.25 13 9.25H11.75V8C11.75 7.33696 12.0134 6.70107 12.4822 6.23223C12.9511 5.76339 13.587 5.5 14.25 5.5ZM8 9.25C6.67443 9.24835 5.40362 8.72103 4.46629 7.78371C3.52897 6.84638 3.00165 5.57558 3 4.25V3H4.25C5.57557 3.00165 6.84638 3.52897 7.78371 4.46629C8.72103 5.40362 9.24835 6.67443 9.25 8V9.25H8ZM0.5 24.25H18V26.75H0.5V24.25ZM0.5 30.5H18V33H0.5V30.5ZM29.25 35.5C27.9393 35.504 26.6608 35.0948 25.5961 34.3304C24.5314 33.5661 23.7347 32.4855 23.3194 31.2424C22.9041 29.9992 22.8913 28.6568 23.2828 27.406C23.6742 26.1552 24.4501 25.0596 25.5 24.275V16.75C25.5 15.7554 25.8951 14.8016 26.5983 14.0984C27.3016 13.3951 28.2554 13 29.25 13C30.2446 13 31.1984 13.3951 31.9017 14.0984C32.6049 14.8016 33 15.7554 33 16.75V24.275C34.0499 25.0596 34.8257 26.1552 35.2172 27.406C35.6087 28.6568 35.5959 29.9992 35.1806 31.2424C34.7653 32.4855 33.9686 33.5661 32.9039 34.3304C31.8392 35.0948 30.5607 35.504 29.25 35.5ZM29.25 15.5C28.9185 15.5 28.6005 15.6317 28.3661 15.8661C28.1317 16.1005 28 16.4185 28 16.75V25.6625L27.3787 26.025C26.8087 26.3488 26.3346 26.8178 26.0046 27.3842C25.6746 27.9507 25.5005 28.5944 25.5 29.25C25.5 30.2446 25.8951 31.1984 26.5983 31.9017C27.3016 32.6049 28.2554 33 29.25 33C30.2446 33 31.1984 32.6049 31.9017 31.9017C32.6049 31.1984 33 30.2446 33 29.25C32.9997 28.5942 32.8257 27.9502 32.4957 27.3835C32.1657 26.8168 31.6914 26.3477 31.1213 26.0238L30.5 25.6625V16.75C30.5 16.4185 30.3683 16.1005 30.1339 15.8661C29.8995 15.6317 29.5815 15.5 29.25 15.5Z" fill="white"/>
</svg>
