<svg width="40" height="40" viewBox="0 0 40 40" fill="none" xmlns="http://www.w3.org/2000/svg">
<path d="M13.75 20V13.75H15C16.3256 13.7483 17.5964 13.221 18.5337 12.2837C19.471 11.3464 19.9983 10.0756 20 8.75V5H16.25C14.97 5.00236 13.7402 5.49795 12.8163 6.38375C12.1693 5.2082 11.2187 4.22775 10.0638 3.54464C8.90888 2.86153 7.59183 2.50078 6.25 2.5H2.5V6.25C2.50232 8.23841 3.29324 10.1447 4.69926 11.5507C6.10528 12.9568 8.01159 13.7477 10 13.75H11.25V20H2.5V22.5H20V20H13.75ZM16.25 7.5H17.5V8.75C17.5 9.41304 17.2366 10.0489 16.7678 10.5178C16.2989 10.9866 15.663 11.25 15 11.25H13.75V10C13.75 9.33696 14.0134 8.70107 14.4822 8.23223C14.9511 7.76339 15.587 7.5 16.25 7.5ZM10 11.25C8.67443 11.2483 7.40362 10.721 6.46629 9.78371C5.52897 8.84638 5.00165 7.57558 5 6.25V5H6.25C7.57557 5.00165 8.84638 5.52897 9.78371 6.46629C10.721 7.40362 11.2483 8.67443 11.25 10V11.25H10ZM2.5 26.25H20V28.75H2.5V26.25ZM2.5 32.5H20V35H2.5V32.5ZM31.25 37.5C29.9393 37.504 28.6608 37.0948 27.5961 36.3304C26.5314 35.5661 25.7347 34.4855 25.3194 33.2424C24.9041 31.9992 24.8913 30.6568 25.2828 29.406C25.6742 28.1552 26.4501 27.0596 27.5 26.275V18.75C27.5 17.7554 27.8951 16.8016 28.5983 16.0984C29.3016 15.3951 30.2554 15 31.25 15C32.2446 15 33.1984 15.3951 33.9017 16.0984C34.6049 16.8016 35 17.7554 35 18.75V26.275C36.0499 27.0596 36.8258 28.1552 37.2172 29.406C37.6087 30.6568 37.5959 31.9992 37.1806 33.2424C36.7653 34.4855 35.9686 35.5661 34.9039 36.3304C33.8392 37.0948 32.5607 37.504 31.25 37.5ZM31.25 17.5C30.9185 17.5 30.6005 17.6317 30.3661 17.8661C30.1317 18.1005 30 18.4185 30 18.75V27.6625L29.3788 28.025C28.8087 28.3488 28.3346 28.8178 28.0046 29.3842C27.6746 29.9507 27.5005 30.5944 27.5 31.25C27.5 32.2446 27.8951 33.1984 28.5983 33.9017C29.3016 34.6049 30.2554 35 31.25 35C32.2446 35 33.1984 34.6049 33.9017 33.9017C34.6049 33.1984 35 32.2446 35 31.25C34.9997 30.5942 34.8257 29.9502 34.4957 29.3835C34.1657 28.8168 33.6914 28.3477 33.1212 28.0238L32.5 27.6625V18.75C32.5 18.4185 32.3683 18.1005 32.1339 17.8661C31.8995 17.6317 31.5815 17.5 31.25 17.5Z" fill="#16A34A"/>
</svg>
